<svg width="183" height="189" viewBox="0 0 183 189" fill="none" xmlns="http://www.w3.org/2000/svg">
<path d="M82.6 25C45.8 25 16 54.8 16 91.6C16 119.8 33.5 143.9 58.3 153.6C57.7 148.3 57.2 140.3 58.5 134.5C59.7 129.3 66.3 101.4 66.3 101.4C66.3 101.4 64.3 97.4 64.3 91.5C64.3 82.2 69.7 75.3 76.3 75.3C82 75.3 82.2 79.4 82.2 84.5C82.2 90.2 74.4 83.6 72.5 91.5C70.9 98.1 107.5 72 89.1 118.9C100.9 118.9 110 106.4 110 88.4C110 72.5 98.5 61.3 82.2 61.3C63.3 61.3 52.1 75.5 52.1 90.2C52.1 95.9 54.3 102.1 57.1 105.4C57.6 106.1 57.7 106.6 57.6 107.3C57.1 109.4 56 113.9 55.8 114.8C55.5 116 45.2 130 44 129.4C35.7 125.5 53.5 109.5 42.5 101.4C42.5 80.4 53.9 44 82.6 44C105.7 44 132.438 62.6 132.438 84.5C132.438 107.4 110.6 129.4 90.6 129.4C83.9 129.4 77.5 125.9 75.3 121.8C75.3 121.8 72 134.5 71.2 137.6C69.7 143.4 65.6 150.6 62.9 155.1C69.1 157 75.7 158.1 82.6 158.1C119.4 158.1 149.2 128.3 149.2 91.5C149.2 54.8 119.4 25 82.6 25Z" fill="#E5424F"/>
<path d="M116 123.5H129.5L132.438 135.333H112.562L116 123.5Z" fill="black"/>
<path d="M110 144.5L96 142V172H149V142L135 144.5L132.438 155.333L112.562 160L110 144.5Z" fill="black"/>
<path d="M180.5 119C180.5 144.57 175.277 161.068 164.323 171.274C153.325 181.522 135.974 185.977 110.326 185.977C85.023 185.977 58.0803 177.427 37.5123 162.576C16.9555 147.733 3 126.792 3 102C3 76.5975 9.93948 51.8792 23.0794 33.5821C36.1744 15.3476 55.4144 3.47672 80.3265 3.47672C105.104 3.47672 130.136 19.4638 149.107 42.2246C168.056 64.9583 180.5 93.9171 180.5 119Z" stroke="#E5424F" stroke-width="5"/>
</svg>
